<?xml version="1.0" encoding="UTF-8" standalone="no"?><!DOCTYPE svg PUBLIC "-//W3C//DTD SVG 1.1//EN" "http://www.w3.org/Graphics/SVG/1.1/DTD/svg11.dtd"><svg width="100%" height="100%" viewBox="0 0 137 137" version="1.1" xmlns="http://www.w3.org/2000/svg" xmlns:xlink="http://www.w3.org/1999/xlink" xml:space="preserve" xmlns:serif="http://www.serif.com/" style="fill-rule:evenodd;clip-rule:evenodd;stroke-linecap:square;stroke-linejoin:round;stroke-miterlimit:11;"><rect id="black-bishop" x="0" y="0.209" width="135.995" height="135.995" style="fill:none;"/><g><g><path d="M53.305,99.85c2.798,12.18 -6.45,13.062 -11.242,8.097c-3.367,-3.488 -9.035,0.721 -11.782,4.06" style="fill:none;stroke:#000;stroke-width:7.5px;"/><path d="M53.305,99.85c2.798,12.18 -6.45,13.062 -11.242,8.097c-3.367,-3.488 -9.035,0.721 -11.782,4.06" style="fill:none;stroke:#595959;stroke-width:2.5px;"/></g><g><path d="M82.69,99.85c-2.798,12.18 6.45,13.062 11.242,8.097c3.367,-3.488 9.035,0.721 11.782,4.06" style="fill:none;stroke:#000;stroke-width:7.5px;"/><path d="M82.69,99.85c-2.798,12.18 6.45,13.062 11.242,8.097c3.367,-3.488 9.035,0.721 11.782,4.06" style="fill:none;stroke:#595959;stroke-width:2.5px;"/></g><path d="M80.168,69.113c0.536,2.21 0.396,4.53 -0.403,6.66c-2.468,6.582 -7.811,20.831 -7.811,20.831l-20.844,0l0.443,-9.4c0,0 -5.006,-7.762 -7.742,-12.003c-1.167,-1.808 -1.795,-3.911 -1.811,-6.063c-0.104,-17.656 3.716,-31.779 15.536,-41.74c15.057,10.114 18.151,23.117 22.632,41.715Z" style="fill:none;stroke:#000;stroke-width:5px;stroke-linecap:round;"/><path d="M80.168,69.113c0.536,2.21 0.396,4.53 -0.403,6.66c-2.468,6.582 -7.811,20.831 -7.811,20.831l-20.844,0l0.443,-9.4c0,0 -5.006,-7.762 -7.742,-12.003c-1.167,-1.808 -1.795,-3.911 -1.811,-6.063c-0.104,-17.656 3.716,-31.779 15.536,-41.74c15.057,10.114 18.151,23.117 22.632,41.715Z" style="fill:#595959;"/><path d="M71.982,29.054c-0.768,-0.42 -1.29,-1.236 -1.29,-2.173c0,-1.366 1.109,-2.475 2.475,-2.475c1.366,0 2.476,1.109 2.476,2.475c0,0.978 -0.569,1.824 -1.393,2.226c14.073,10.486 18.808,22.774 19.585,40.776c0.075,1.734 -0.248,3.462 -0.946,5.051c-1.813,4.115 -5.602,12.029 -7.927,12.029c3.142,0 -0.077,9.641 -0.077,9.641c-11.657,5.624 -22.9,5.407 -33.775,0c0,0 -3.423,-9.128 -0.361,-9.128c-2.053,0 -5.254,-6.732 -7.139,-11.166c-1.051,-2.471 -1.191,-5.235 -0.396,-7.8c5.286,-17.128 14.473,-29.668 28.768,-39.456Z" style="fill:none;stroke:#000;stroke-width:5px;"/><path d="M71.982,29.054c-0.768,-0.42 -1.29,-1.236 -1.29,-2.173c0,-1.366 1.109,-2.475 2.475,-2.475c1.366,0 2.476,1.109 2.476,2.475c0,0.978 -0.569,1.824 -1.393,2.226c14.073,10.486 18.808,22.774 19.585,40.776c0.075,1.734 -0.248,3.462 -0.946,5.051c-1.813,4.115 -5.602,12.029 -7.927,12.029c3.142,0 -0.077,9.641 -0.077,9.641c-11.657,5.624 -22.9,5.407 -33.775,0c0,0 -3.423,-9.128 -0.361,-9.128c-2.053,0 -5.254,-6.732 -7.139,-11.166c-1.051,-2.471 -1.191,-5.235 -0.396,-7.8c5.286,-17.128 14.473,-29.668 28.768,-39.456Z" style="fill:#595959;"/><clipPath id="_clip1"><path d="M71.982,29.054c-0.768,-0.42 -1.29,-1.236 -1.29,-2.173c0,-1.366 1.109,-2.475 2.475,-2.475c1.366,0 2.476,1.109 2.476,2.475c0,0.978 -0.569,1.824 -1.393,2.226c14.073,10.486 18.808,22.774 19.585,40.776c0.075,1.734 -0.248,3.462 -0.946,5.051c-1.813,4.115 -5.602,12.029 -7.927,12.029c3.142,0 -0.077,9.641 -0.077,9.641c-11.657,5.624 -22.9,5.407 -33.775,0c0,0 -3.423,-9.128 -0.361,-9.128c-2.053,0 -5.254,-6.732 -7.139,-11.166c-1.051,-2.471 -1.191,-5.235 -0.396,-7.8c5.286,-17.128 14.473,-29.668 28.768,-39.456Z"/></clipPath><g clip-path="url(#_clip1)"><path d="M73.167,24.406c0.942,0.753 2.003,2.392 0.467,4.705c2.575,4.241 14.006,24.044 13.763,41.07c-0.059,4.138 -1.67,10.258 -5.274,13.578c-2.568,2.366 -11.441,6.196 -11.441,6.196c3.841,1.16 7.921,0.897 10.19,0.042c2.079,-0.783 1.493,5.42 -0.858,6.607c-1.772,0.895 -5.324,2.297 -7.691,3.797l23.516,-3.797l9.875,-61.255l-27.672,-10.943l-4.875,0Z" style="fill-opacity:0.4;"/></g><path d="M87.328,86.113l0.42,0.233l0.306,0.386l0.002,0.004l0.131,0.476l-0.059,0.475l-0.233,0.42l-0.386,0.306l-0.003,0.001l-0.021,0.01l-0.06,0.025l-0.045,0.018l-0.053,0.021l-0.061,0.024l-0.069,0.027l-0.077,0.031l-0.086,0.032l-0.093,0.036l-0.101,0.038l-0.109,0.04l-0.116,0.042l-0.123,0.044l-0.13,0.046l-0.137,0.049l-0.144,0.049l-0.15,0.051l-0.078,0.027l-0.079,0.026l-0.081,0.027l-0.083,0.027l-0.084,0.027l-0.085,0.028l-0.087,0.028l-0.089,0.028l-0.09,0.028l-0.091,0.029l-0.093,0.028l-0.094,0.029l-0.096,0.029l-0.097,0.029l-0.098,0.03l-0.1,0.029l-0.101,0.029l-0.102,0.03l-0.103,0.029l-0.105,0.03l-0.106,0.03l-0.107,0.029l-0.109,0.03l-0.109,0.029l-0.111,0.03l-0.112,0.029l-0.113,0.029l-0.114,0.03l-0.115,0.029l-0.117,0.029l-0.117,0.029l-0.118,0.028l-0.12,0.029l-0.12,0.028l-0.121,0.028l-0.122,0.028l-0.124,0.028l-0.124,0.027l-0.124,0.027l-0.126,0.027l-0.127,0.026l-0.127,0.026l-0.129,0.026l-0.129,0.025l-0.13,0.025l-0.13,0.025l-0.132,0.024l-0.132,0.024l-0.132,0.023l-0.134,0.023l-0.134,0.022l-0.134,0.022l-0.136,0.021l-0.136,0.021l-0.136,0.02l-0.137,0.02l-0.138,0.019l-0.138,0.019l-0.138,0.018l-0.139,0.017l-0.14,0.016l-0.14,0.016l-0.14,0.016l-0.07,0.007l-0.071,0.007l-0.07,0.007l-0.071,0.007l-0.071,0.007l-0.07,0.006l-0.071,0.006l-0.071,0.006l-0.071,0.006l-0.071,0.006l-0.072,0.005l-0.071,0.006l-0.071,0.005l-0.071,0.005l-0.072,0.004l-0.071,0.005l-0.072,0.004l-0.072,0.004l-0.071,0.004l-0.072,0.004l-0.072,0.003l-0.071,0.003l-0.072,0.003l-0.072,0.003l-0.072,0.003l-0.072,0.002l-0.072,0.002l-0.072,0.002l-0.072,0.002l-0.072,0.001l-0.072,0.001l-0.073,0.001l-0.072,0.001l-0.072,0l-0.072,0l-0.072,0l-0.072,0l-0.073,-0.001l-0.072,0l-0.072,-0.001l-0.072,-0.002l-0.072,-0.001l-0.072,-0.002l-0.073,-0.002l-0.072,-0.003l-0.072,-0.002l-0.072,-0.003l-0.072,-0.003l-0.072,-0.004l-0.072,-0.004l-0.072,-0.004l-0.072,-0.004l-0.072,-0.004l-0.071,-0.005l-0.256,-0.245l0.25,-0.249l0.071,-0.007l0.069,-0.006l0.07,-0.007l0.07,-0.007l0.069,-0.008l0.07,-0.008l0.07,-0.008l0.069,-0.008l0.07,-0.008l0.069,-0.009l0.069,-0.009l0.07,-0.009l0.069,-0.01l0.069,-0.01l0.069,-0.01l0.069,-0.01l0.069,-0.01l0.069,-0.011l0.069,-0.011l0.069,-0.011l0.069,-0.012l0.069,-0.011l0.068,-0.012l0.069,-0.012l0.068,-0.013l0.069,-0.012l0.068,-0.013l0.068,-0.013l0.069,-0.013l0.068,-0.013l0.068,-0.014l0.068,-0.014l0.067,-0.014l0.068,-0.014l0.068,-0.014l0.067,-0.015l0.068,-0.014l0.067,-0.015l0.067,-0.015l0.068,-0.016l0.067,-0.015l0.067,-0.016l0.066,-0.016l0.067,-0.016l0.067,-0.016l0.066,-0.016l0.067,-0.017l0.066,-0.016l0.066,-0.017l0.066,-0.017l0.066,-0.017l0.066,-0.018l0.066,-0.017l0.065,-0.018l0.131,-0.036l0.13,-0.036l0.129,-0.037l0.13,-0.037l0.128,-0.038l0.128,-0.038l0.127,-0.039l0.127,-0.039l0.126,-0.04l0.125,-0.04l0.125,-0.041l0.124,-0.041l0.123,-0.041l0.122,-0.042l0.122,-0.042l0.121,-0.042l0.121,-0.043l0.119,-0.043l0.119,-0.043l0.118,-0.043l0.117,-0.044l0.116,-0.044l0.115,-0.044l0.115,-0.044l0.113,-0.044l0.113,-0.044l0.112,-0.045l0.111,-0.045l0.11,-0.044l0.109,-0.045l0.107,-0.045l0.107,-0.044l0.106,-0.045l0.105,-0.045l0.104,-0.044l0.103,-0.045l0.102,-0.044l0.1,-0.045l0.1,-0.044l0.098,-0.044l0.097,-0.044l0.096,-0.044l0.095,-0.044l0.094,-0.043l0.092,-0.043l0.092,-0.043l0.09,-0.043l0.089,-0.042l0.087,-0.042l0.086,-0.042l0.085,-0.041l0.084,-0.041l0.082,-0.041l0.081,-0.04l0.08,-0.04l0.078,-0.039l0.076,-0.039l0.076,-0.038l0.074,-0.038l0.072,-0.037l0.071,-0.037l0.07,-0.036l0.067,-0.036l0.132,-0.07l0.126,-0.067l0.119,-0.064l0.113,-0.062l0.106,-0.058l0.099,-0.056l0.093,-0.052l0.085,-0.048l0.079,-0.045l0.071,-0.042l0.064,-0.037l0.057,-0.034l0.049,-0.029l0.041,-0.025l0.033,-0.02l0.044,-0.027l0.014,-0.009l0.002,-0.001l0.475,-0.131l0.476,0.06Z"/><path d="M76.59,48.419c0.269,2.774 0.407,5.535 0.423,8.283l6.016,0l0,2.17l-6.028,0c-0.072,4.196 -0.422,8.364 -1.014,12.508l-1.944,0c0.553,-4.161 0.86,-8.331 0.928,-12.508l-6.026,0l0,-2.17l6.04,0c-0.01,-2.757 -0.123,-5.518 -0.34,-8.283l1.945,0Z" style="fill:none;stroke:#000;stroke-width:4.15px;stroke-linecap:round;"/><path d="M76.59,48.419c0.269,2.774 0.407,5.535 0.423,8.283l6.016,0l0,2.17l-6.028,0c-0.072,4.196 -0.422,8.364 -1.014,12.508l-1.944,0c0.553,-4.161 0.86,-8.331 0.928,-12.508l-6.026,0l0,-2.17l6.04,0c-0.01,-2.757 -0.123,-5.518 -0.34,-8.283l1.945,0Z" style="fill:#595959;"/></g></svg>