<?xml version="1.0" encoding="UTF-8" standalone="no"?><!DOCTYPE svg PUBLIC "-//W3C//DTD SVG 1.1//EN" "http://www.w3.org/Graphics/SVG/1.1/DTD/svg11.dtd"><svg width="100%" height="100%" viewBox="0 0 137 137" version="1.1" xmlns="http://www.w3.org/2000/svg" xmlns:xlink="http://www.w3.org/1999/xlink" xml:space="preserve" xmlns:serif="http://www.serif.com/" style="fill-rule:evenodd;clip-rule:evenodd;stroke-linejoin:round;stroke-miterlimit:1.5;"><rect id="black-king" x="0.205" y="0.209" width="135.995" height="135.995" style="fill:none;"/><g><path d="M68.202,52.907c8.018,-15.583 24.053,-15.583 32.071,-7.862c8.017,7.722 8.017,23.165 0,38.608c-5.613,11.582 -20.044,23.165 -32.071,30.886c-12.026,-7.721 -26.458,-19.304 -32.07,-30.886c-8.017,-15.443 -8.017,-30.886 0,-38.608c8.018,-7.721 24.053,-7.721 32.07,7.862Z" style="fill:none;stroke:#000;stroke-width:5px;"/><path d="M68.202,52.907c8.018,-15.583 24.053,-15.583 32.071,-7.862c8.017,7.722 8.017,23.165 0,38.608c-5.613,11.582 -20.044,23.165 -32.071,30.886c-12.026,-7.721 -26.458,-19.304 -32.07,-30.886c-8.017,-15.443 -8.017,-30.886 0,-38.608c8.018,-7.721 24.053,-7.721 32.07,7.862Z" style="fill:#595959;"/><clipPath id="_clip1"><path d="M68.202,52.907c8.018,-15.583 24.053,-15.583 32.071,-7.862c8.017,7.722 8.017,23.165 0,38.608c-5.613,11.582 -20.044,23.165 -32.071,30.886c-12.026,-7.721 -26.458,-19.304 -32.07,-30.886c-8.017,-15.443 -8.017,-30.886 0,-38.608c8.018,-7.721 24.053,-7.721 32.07,7.862Z"/></clipPath><g clip-path="url(#_clip1)"><path d="M82.78,40.533c23.372,3.538 12.544,50.896 -6.791,63.489l30.297,-0.331l4.258,-61.944l-28.314,-3.729l0.55,2.515Z" style="fill-opacity:0.4;"/></g><ellipse cx="68.008" cy="112.354" rx="21.13" ry="5.466" style="fill:none;stroke:#000;stroke-width:5px;"/><ellipse cx="68.008" cy="112.354" rx="21.13" ry="5.466" style="fill:#595959;"/><clipPath id="_clip2"><ellipse cx="68.008" cy="112.354" rx="21.13" ry="5.466"/></clipPath><g clip-path="url(#_clip2)"><path d="M66.23,100.502l-20.289,0l0,17.318l20.289,0c-2.428,-3.837 -3.159,-9.027 0,-17.318Z" style="fill-opacity:0.4;"/></g><path d="M66.47,39.983l0,-8.963l-8.963,0l0,-3.465l8.963,0l0,-8.963l3.465,0l0,8.963l8.963,0l0,3.465l-8.963,0l0,8.963l3.836,0c2.717,22.211 2.626,32.206 0,47.848c0,6.101 11.985,9.029 11.985,9.029c1.145,0 2.243,0.455 3.053,1.265c0.81,0.81 1.265,1.908 1.265,3.053l0,0.001c0,1.145 -0.455,11.286 -1.265,12.095c-0.383,-5.207 -40.344,-5.537 -41.603,0c-0.81,-0.809 -1.265,-10.95 -1.265,-12.095l0,-0.001c0,-1.145 0.455,-2.243 1.265,-3.053c0.81,-0.81 1.908,-1.265 3.053,-1.265c0,0 12.375,-2.928 12.375,-9.029c-2.837,-15.879 -2.868,-25.882 0,-47.848l3.836,0Z" style="fill:none;stroke:#000;stroke-width:5px;"/><path d="M66.47,39.983l0,-8.963l-8.963,0l0,-3.465l8.963,0l0,-8.963l3.465,0l0,8.963l8.963,0l0,3.465l-8.963,0l0,8.963l3.836,0c2.717,22.211 2.626,32.206 0,47.848c0,6.101 11.985,9.029 11.985,9.029c1.145,0 2.243,0.455 3.053,1.265c0.81,0.81 1.265,1.908 1.265,3.053l0,0.001c0,1.145 -0.455,11.286 -1.265,12.095c-0.383,-5.207 -40.344,-5.537 -41.603,0c-0.81,-0.809 -1.265,-10.95 -1.265,-12.095l0,-0.001c0,-1.145 0.455,-2.243 1.265,-3.053c0.81,-0.81 1.908,-1.265 3.053,-1.265c0,0 12.375,-2.928 12.375,-9.029c-2.837,-15.879 -2.868,-25.882 0,-47.848l3.836,0Z" style="fill:#595959;"/><clipPath id="_clip3"><path d="M66.47,39.983l0,-8.963l-8.963,0l0,-3.465l8.963,0l0,-8.963l3.465,0l0,8.963l8.963,0l0,3.465l-8.963,0l0,8.963l3.836,0c2.717,22.211 2.626,32.206 0,47.848c0,6.101 11.985,9.029 11.985,9.029c1.145,0 2.243,0.455 3.053,1.265c0.81,0.81 1.265,1.908 1.265,3.053l0,0.001c0,1.145 -0.455,11.286 -1.265,12.095c-0.383,-5.207 -40.344,-5.537 -41.603,0c-0.81,-0.809 -1.265,-10.95 -1.265,-12.095l0,-0.001c0,-1.145 0.455,-2.243 1.265,-3.053c0.81,-0.81 1.908,-1.265 3.053,-1.265c0,0 12.375,-2.928 12.375,-9.029c-2.837,-15.879 -2.868,-25.882 0,-47.848l3.836,0Z"/></clipPath><g clip-path="url(#_clip3)"><path d="M106.286,18.592l-37.518,0l0,21.391l-0.565,0l0,51.022c0.066,4.226 3.945,6.96 6.199,7.446c4.911,1.058 3.03,16.088 -1.994,16.088l33.878,0l0,-95.947Z" style="fill-opacity:0.4;"/></g></g></svg>