<?xml version="1.0" encoding="UTF-8" standalone="no"?><!DOCTYPE svg PUBLIC "-//W3C//DTD SVG 1.1//EN" "http://www.w3.org/Graphics/SVG/1.1/DTD/svg11.dtd"><svg width="100%" height="100%" viewBox="0 0 137 137" version="1.1" xmlns="http://www.w3.org/2000/svg" xmlns:xlink="http://www.w3.org/1999/xlink" xml:space="preserve" xmlns:serif="http://www.serif.com/" style="fill-rule:evenodd;clip-rule:evenodd;stroke-linecap:round;stroke-linejoin:round;stroke-miterlimit:11;"><rect id="black-rook" x="0.032" y="0.209" width="135.995" height="135.995" style="fill:none;"/><g><path d="M47.898,22.859l8.698,0l0,9.598l7.085,0l0,-9.598l8.698,0l0,9.598l7.084,0l0,-9.598l8.698,0l0,19.195l-4.023,4.023l0,0c-0.496,0 -0.971,0.197 -1.322,0.547c-0.351,0.351 -0.548,0.827 -0.548,1.322c0,7.765 0,37.062 0,37.062l7.885,15.29l0,4.762l15.96,0l0,8.493l-76.166,0l0,-8.493l15.926,0l0,-4.762l7.926,-15.29l0,-37.062c0,-0.495 -0.197,-0.971 -0.547,-1.322c-0.351,-0.35 -0.826,-0.547 -1.322,-0.547c-0.006,0 -0.009,0 -0.009,0l-4.023,-4.023l0,-19.195Z" style="fill:none;stroke:#000;stroke-width:5px;"/><path d="M47.898,22.859l8.698,0l0,9.598l7.085,0l0,-9.598l8.698,0l0,9.598l7.084,0l0,-9.598l8.698,0l0,19.195l-4.023,4.023l0,0c-0.496,0 -0.971,0.197 -1.322,0.547c-0.351,0.351 -0.548,0.827 -0.548,1.322c0,7.765 0,37.062 0,37.062l7.885,15.29l0,4.762l15.96,0l0,8.493l-76.166,0l0,-8.493l15.926,0l0,-4.762l7.926,-15.29l0,-37.062c0,-0.495 -0.197,-0.971 -0.547,-1.322c-0.351,-0.35 -0.826,-0.547 -1.322,-0.547c-0.006,0 -0.009,0 -0.009,0l-4.023,-4.023l0,-19.195Z" style="fill:#595959;"/><clipPath id="_clip1"><path d="M47.898,22.859l8.698,0l0,9.598l7.085,0l0,-9.598l8.698,0l0,9.598l7.084,0l0,-9.598l8.698,0l0,19.195l-4.023,4.023l0,0c-0.496,0 -0.971,0.197 -1.322,0.547c-0.351,0.351 -0.548,0.827 -0.548,1.322c0,7.765 0,37.062 0,37.062l7.885,15.29l0,4.762l15.96,0l0,8.493l-76.166,0l0,-8.493l15.926,0l0,-4.762l7.926,-15.29l0,-37.062c0,-0.495 -0.197,-0.971 -0.547,-1.322c-0.351,-0.35 -0.826,-0.547 -1.322,-0.547c-0.006,0 -0.009,0 -0.009,0l-4.023,-4.023l0,-19.195Z"/></clipPath><g clip-path="url(#_clip1)"><rect x="70.908" y="46.744" width="17.957" height="38.238" style="fill-opacity:0.4;"/><rect x="74.697" y="10.394" width="17.958" height="31.826" style="fill-opacity:0.4;"/><rect x="74.769" y="100.257" width="15.412" height="3.548" style="fill-opacity:0.4;"/><rect x="77.822" y="103.805" width="28.291" height="9.749" style="fill-opacity:0.4;"/><path d="M104.581,42.47l-29.812,0l-3.573,4.274l33.385,0l0,-4.274Z" style="fill-opacity:0.4;"/><path d="M90.153,84.982l-19.245,0l3.861,15.275l15.384,0l0,-15.275Z" style="fill-opacity:0.4;"/></g><path d="M83.913,46.096l0.477,0.122l0.384,0.289l0.248,0.41l0.074,0.487l0,0.005l-0.123,0.478l-0.288,0.383l-0.41,0.248l-0.488,0.074l-0.002,0l-11.868,-1.538l-1.232,-0.373l1.264,-0.247l11.962,-0.338l0.002,0Z"/><path d="M83.848,47.344l-11.915,-0.6" style="fill:#595959;"/><path d="M88.61,41.248l0.48,0.111l0.391,0.279l0.257,0.405l0.086,0.485l0,0.005l-0.112,0.48l-0.279,0.39l-0.404,0.258l-0.486,0.086l-0.002,0l-30.298,-1.751l-0.002,0l-0.878,-0.13l-0.361,-0.211l0,-0.004l0.372,-0.191l0.883,-0.084l0.003,0l30.348,-0.128l0.002,0Z"/><path d="M88.574,42.497l-30.323,-0.811" style="fill:#595959;"/><path d="M90.642,102.653l0.398,0.269l0.268,0.397l0.099,0.483l0,0.005l-0.099,0.483l-0.268,0.397l-0.398,0.269l-0.483,0.099l-0.002,0l-25.688,-0.94l-0.002,0l-0.881,-0.11l-0.367,-0.198l0,-0.005l0.367,-0.198l0.881,-0.11l0.002,0l25.688,-0.939l0.002,0l0.483,0.098Z"/><path d="M90.157,103.805l-25.688,0" style="fill:#595959;"/></g></svg>