<?xml version="1.0" encoding="UTF-8" standalone="no"?><!DOCTYPE svg PUBLIC "-//W3C//DTD SVG 1.1//EN" "http://www.w3.org/Graphics/SVG/1.1/DTD/svg11.dtd"><svg width="100%" height="100%" viewBox="0 0 137 137" version="1.1" xmlns="http://www.w3.org/2000/svg" xmlns:xlink="http://www.w3.org/1999/xlink" xml:space="preserve" xmlns:serif="http://www.serif.com/" style="fill-rule:evenodd;clip-rule:evenodd;stroke-linejoin:round;stroke-miterlimit:1.5;"><rect id="black-knight" x="0.17" y="0.209" width="135.995" height="135.995" style="fill:none;"/><g><path d="M55.213,93.78c-21.032,-12.634 11.449,-31.644 8.493,-33.037c-2.532,1.186 -9.711,2.361 -9.711,2.361c0,0 -9.366,2.818 -10.068,5.193c-0.701,2.374 0.326,1.469 -1.261,3.369c-2.757,3.299 -12.291,-1.716 -12.291,-1.716c0,0 -0.82,1.738 -2.117,0.91c-1.297,-0.828 -1.544,-6.334 -0.648,-8.515c0.895,-2.182 11.541,-16.37 11.541,-16.37c0,0 11.203,-12.773 16.124,-18.161l-0.249,-0.579l-0.016,-0.034l-0.269,-0.532l-0.03,-0.055l-0.289,-0.495l-0.042,-0.067l-0.306,-0.464l-0.052,-0.074l-0.324,-0.436l-0.06,-0.076l-0.34,-0.414l-0.064,-0.074l-0.357,-0.394l-0.065,-0.068l-0.375,-0.38l-0.059,-0.056l-0.397,-0.369l-0.042,-0.037l-0.426,-0.368l-0.001,-0.001l-0.712,-0.551l-0.469,-0.34l-0.509,-0.346l-0.483,-0.307l-0.494,-0.296l-0.483,-0.273l-0.467,-0.251l-0.473,-0.237l-0.428,-0.208l-0.449,-0.203l-0.378,-0.166l-0.413,-0.17l-0.291,-0.116l-0.837,-0.302l-0.268,-0.095l-0.395,-0.122c0.19,0.001 0.41,0.015 0.659,0.044l0.057,0.004l0.042,0.006l0.068,0.007l0.278,0.045l0.511,0.076l0.158,0.031l0.11,0.018l0.336,0.071l0.455,0.091l0.271,0.063l0.193,0.041l0.334,0.082l0.398,0.093l0.401,0.104l0.284,0.07l0.297,0.08l0.326,0.084l0.549,0.152l0.374,0.101l0.236,0.068l0.238,0.066l0.271,0.08l0.896,0.259l0.858,0.264l0.944,0.281l0.954,0.303l0.674,0.207l0.716,0.235l0.702,0.223l1.137,0.379l0.843,0.276l0.52,0.178l0.434,0.145l1.167,0.404l0.975,0.334l0.311,0.112l0.183,0.063l0.954,0.343l1.07,0.382l0.125,0.048c2.994,0.605 5.707,2.208 7.11,3.147c8.33,5.575 14.303,13.009 18.468,26.959c6.666,22.325 -1.594,37.334 -3.591,38.989c0.328,15.19 18.749,15.19 18.749,15.19c2.345,0 4.249,1.904 4.249,4.249c0,2.345 -1.904,4.249 -4.249,4.249l-67.668,0c-2.346,0 -4.25,-1.904 -4.25,-4.249c0,-2.345 1.904,-4.249 4.25,-4.249c0,0 17.625,0 17.873,-15.276Z" style="fill:none;stroke:#000;stroke-width:5px;"/><path d="M55.213,93.78c-21.032,-12.634 11.449,-31.644 8.493,-33.037c-2.532,1.186 -9.711,2.361 -9.711,2.361c0,0 -9.366,2.818 -10.068,5.193c-0.701,2.374 0.326,1.469 -1.261,3.369c-2.757,3.299 -12.291,-1.716 -12.291,-1.716c0,0 -0.82,1.738 -2.117,0.91c-1.297,-0.828 -1.544,-6.334 -0.648,-8.515c0.895,-2.182 11.541,-16.37 11.541,-16.37c0,0 11.203,-12.773 16.124,-18.161l-0.249,-0.579l-0.016,-0.034l-0.269,-0.532l-0.03,-0.055l-0.289,-0.495l-0.042,-0.067l-0.306,-0.464l-0.052,-0.074l-0.324,-0.436l-0.06,-0.076l-0.34,-0.414l-0.064,-0.074l-0.357,-0.394l-0.065,-0.068l-0.375,-0.38l-0.059,-0.056l-0.397,-0.369l-0.042,-0.037l-0.426,-0.368l-0.001,-0.001l-0.712,-0.551l-0.469,-0.34l-0.509,-0.346l-0.483,-0.307l-0.494,-0.296l-0.483,-0.273l-0.467,-0.251l-0.473,-0.237l-0.428,-0.208l-0.449,-0.203l-0.378,-0.166l-0.413,-0.17l-0.291,-0.116l-0.837,-0.302l-0.268,-0.095l-0.395,-0.122c0.19,0.001 0.41,0.015 0.659,0.044l0.057,0.004l0.042,0.006l0.068,0.007l0.278,0.045l0.511,0.076l0.158,0.031l0.11,0.018l0.336,0.071l0.455,0.091l0.271,0.063l0.193,0.041l0.334,0.082l0.398,0.093l0.401,0.104l0.284,0.07l0.297,0.08l0.326,0.084l0.549,0.152l0.374,0.101l0.236,0.068l0.238,0.066l0.271,0.08l0.896,0.259l0.858,0.264l0.944,0.281l0.954,0.303l0.674,0.207l0.716,0.235l0.702,0.223l1.137,0.379l0.843,0.276l0.52,0.178l0.434,0.145l1.167,0.404l0.975,0.334l0.311,0.112l0.183,0.063l0.954,0.343l1.07,0.382l0.125,0.048c2.994,0.605 5.707,2.208 7.11,3.147c8.33,5.575 14.303,13.009 18.468,26.959c6.666,22.325 -1.594,37.334 -3.591,38.989c0.328,15.19 18.749,15.19 18.749,15.19c2.345,0 4.249,1.904 4.249,4.249c0,2.345 -1.904,4.249 -4.249,4.249l-67.668,0c-2.346,0 -4.25,-1.904 -4.25,-4.249c0,-2.345 1.904,-4.249 4.25,-4.249c0,0 17.625,0 17.873,-15.276Z" style="fill:#595959;"/><clipPath id="_clip1"><path d="M55.213,93.78c-21.032,-12.634 11.449,-31.644 8.493,-33.037c-2.532,1.186 -9.711,2.361 -9.711,2.361c0,0 -9.366,2.818 -10.068,5.193c-0.701,2.374 0.326,1.469 -1.261,3.369c-2.757,3.299 -12.291,-1.716 -12.291,-1.716c0,0 -0.82,1.738 -2.117,0.91c-1.297,-0.828 -1.544,-6.334 -0.648,-8.515c0.895,-2.182 11.541,-16.37 11.541,-16.37c0,0 11.203,-12.773 16.124,-18.161l-0.249,-0.579l-0.016,-0.034l-0.269,-0.532l-0.03,-0.055l-0.289,-0.495l-0.042,-0.067l-0.306,-0.464l-0.052,-0.074l-0.324,-0.436l-0.06,-0.076l-0.34,-0.414l-0.064,-0.074l-0.357,-0.394l-0.065,-0.068l-0.375,-0.38l-0.059,-0.056l-0.397,-0.369l-0.042,-0.037l-0.426,-0.368l-0.001,-0.001l-0.712,-0.551l-0.469,-0.34l-0.509,-0.346l-0.483,-0.307l-0.494,-0.296l-0.483,-0.273l-0.467,-0.251l-0.473,-0.237l-0.428,-0.208l-0.449,-0.203l-0.378,-0.166l-0.413,-0.17l-0.291,-0.116l-0.837,-0.302l-0.268,-0.095l-0.395,-0.122c0.19,0.001 0.41,0.015 0.659,0.044l0.057,0.004l0.042,0.006l0.068,0.007l0.278,0.045l0.511,0.076l0.158,0.031l0.11,0.018l0.336,0.071l0.455,0.091l0.271,0.063l0.193,0.041l0.334,0.082l0.398,0.093l0.401,0.104l0.284,0.07l0.297,0.08l0.326,0.084l0.549,0.152l0.374,0.101l0.236,0.068l0.238,0.066l0.271,0.08l0.896,0.259l0.858,0.264l0.944,0.281l0.954,0.303l0.674,0.207l0.716,0.235l0.702,0.223l1.137,0.379l0.843,0.276l0.52,0.178l0.434,0.145l1.167,0.404l0.975,0.334l0.311,0.112l0.183,0.063l0.954,0.343l1.07,0.382l0.125,0.048c2.994,0.605 5.707,2.208 7.11,3.147c8.33,5.575 14.303,13.009 18.468,26.959c6.666,22.325 -1.594,37.334 -3.591,38.989c0.328,15.19 18.749,15.19 18.749,15.19c2.345,0 4.249,1.904 4.249,4.249c0,2.345 -1.904,4.249 -4.249,4.249l-67.668,0c-2.346,0 -4.25,-1.904 -4.25,-4.249c0,-2.345 1.904,-4.249 4.25,-4.249c0,0 17.625,0 17.873,-15.276Z"/></clipPath><g clip-path="url(#_clip1)"><path d="M109.257,29.953c-23.058,-6.617 -58.452,-22.955 -67.46,-15.867c5.324,2.076 13.126,5.161 18.877,7.894c2.794,1.328 3.807,0.907 6.41,3.578c16.365,16.792 20.405,50.015 12.521,59.264c-1.547,1.816 -5.464,8.784 -8.431,9.086c1.672,5.199 8.484,14.942 14.64,15.038c8.24,0.129 9.206,8.911 1.893,8.608c-3.208,-0.133 21.55,0 21.55,0l0,-87.601Z" style="fill-opacity:0.4;"/></g><path d="M37.934,65.751l-0.014,0.446l-0.046,0.057l-0.044,0.056l-0.043,0.056l-0.042,0.056l-0.042,0.056l-0.042,0.057l-0.04,0.056l-0.04,0.056l-0.04,0.056l-0.039,0.057l-0.038,0.056l-0.038,0.056l-0.037,0.056l-0.037,0.057l-0.036,0.056l-0.035,0.056l-0.035,0.057l-0.034,0.056l-0.034,0.057l-0.033,0.056l-0.033,0.056l-0.032,0.056l-0.032,0.057l-0.031,0.056l-0.031,0.056l-0.03,0.056l-0.029,0.057l-0.03,0.056l-0.028,0.056l-0.028,0.056l-0.028,0.056l-0.027,0.056l-0.027,0.056l-0.027,0.056l-0.025,0.055l-0.026,0.056l-0.025,0.056l-0.024,0.055l-0.024,0.056l-0.024,0.055l-0.023,0.056l-0.023,0.055l-0.023,0.055l-0.022,0.056l-0.021,0.055l-0.022,0.055l-0.021,0.054l-0.02,0.055l-0.02,0.055l-0.02,0.055l-0.019,0.054l-0.019,0.054l-0.019,0.055l-0.018,0.054l-0.018,0.054l-0.018,0.054l-0.017,0.054l-0.017,0.053l-0.016,0.054l-0.017,0.053l-0.016,0.054l-0.015,0.053l-0.016,0.053l-0.015,0.053l-0.014,0.053l-0.015,0.052l-0.014,0.053l-0.014,0.052l-0.014,0.052l-0.013,0.052l-0.013,0.052l-0.013,0.052l-0.012,0.051l-0.013,0.052l-0.012,0.051l-0.011,0.051l-0.012,0.051l-0.011,0.051l-0.011,0.05l-0.011,0.05l-0.011,0.051l-0.01,0.049l-0.021,0.1l-0.019,0.098l-0.019,0.098l-0.017,0.097l-0.018,0.096l-0.016,0.096l-0.016,0.094l-0.016,0.094l-0.014,0.092l-0.015,0.092l-0.014,0.091l-0.013,0.09l-0.013,0.088l-0.013,0.088l-0.012,0.087l-0.024,0.172l-0.024,0.167l-0.023,0.163l-0.023,0.158l0,0.002l-0.224,0.439l-0.364,0.312l-0.455,0.153l-0.492,-0.033l-0.004,-0.001l-0.44,-0.224l-0.311,-0.364l-0.154,-0.455l0.034,-0.492l0,-0.002l0.061,-0.145l0.063,-0.15l0.066,-0.159l0.069,-0.166l0.036,-0.086l0.037,-0.087l0.037,-0.089l0.039,-0.09l0.039,-0.092l0.041,-0.093l0.041,-0.094l0.043,-0.096l0.043,-0.096l0.045,-0.098l0.045,-0.099l0.047,-0.1l0.048,-0.101l0.049,-0.102l0.05,-0.102l0.026,-0.052l0.026,-0.052l0.026,-0.052l0.027,-0.052l0.027,-0.052l0.027,-0.053l0.028,-0.052l0.028,-0.053l0.028,-0.053l0.028,-0.053l0.029,-0.053l0.03,-0.054l0.029,-0.053l0.03,-0.053l0.031,-0.054l0.03,-0.054l0.031,-0.054l0.032,-0.053l0.031,-0.054l0.033,-0.054l0.032,-0.054l0.033,-0.055l0.033,-0.054l0.034,-0.054l0.034,-0.054l0.035,-0.055l0.035,-0.054l0.035,-0.054l0.036,-0.054l0.036,-0.055l0.036,-0.054l0.037,-0.054l0.037,-0.055l0.038,-0.054l0.038,-0.054l0.039,-0.054l0.039,-0.055l0.039,-0.054l0.04,-0.054l0.04,-0.054l0.041,-0.054l0.041,-0.054l0.042,-0.053l0.042,-0.054l0.043,-0.054l0.043,-0.053l0.043,-0.053l0.044,-0.054l0.044,-0.053l0.045,-0.053l0.045,-0.053l0.046,-0.052l0.046,-0.053l0.047,-0.052l0.047,-0.053l0.048,-0.052l0.048,-0.052l0.049,-0.051l0.049,-0.052l0.05,-0.051l0.05,-0.052l0.05,-0.051l0.051,-0.05l0.052,-0.051l0.052,-0.05l0.053,-0.05l0.053,-0.05l0.053,-0.05l0.054,-0.049l0.055,-0.05l0.055,-0.048l0.056,-0.049l0.056,-0.049l0.057,-0.048l0.057,-0.047l0.058,-0.048l0.058,-0.047l0.059,-0.047l0.059,-0.047l0.06,-0.046l0.06,-0.046l0.06,-0.045l0.446,0.001Z"/><path d="M42.916,44.155c0.757,-2.295 1.681,-3.331 3.232,-4.8c0.818,-0.776 3.676,0.088 2.931,0.907c-1.75,1.928 -3.175,3.029 -6.163,3.893Z"/><path d="M54.406,26.845l0.422,0.255l0.002,0.001l0.026,0.03l0.024,0.028l0.024,0.028l0.024,0.028l0.025,0.027l0.024,0.027l0.05,0.056l0.051,0.054l0.05,0.054l0.052,0.054l0.051,0.053l0.053,0.053l0.052,0.053l0.054,0.052l0.053,0.051l0.054,0.051l0.055,0.051l0.055,0.05l0.055,0.05l0.056,0.05l0.056,0.049l0.057,0.048l0.057,0.048l0.057,0.048l0.058,0.047l0.058,0.046l0.058,0.046l0.059,0.046l0.059,0.045l0.059,0.044l0.06,0.044l0.06,0.044l0.06,0.043l0.06,0.042l0.061,0.042l0.061,0.042l0.061,0.04l0.062,0.041l0.061,0.04l0.062,0.039l0.062,0.038l0.063,0.038l0.062,0.038l0.063,0.037l0.062,0.036l0.063,0.036l0.063,0.035l0.063,0.035l0.064,0.034l0.063,0.033l0.063,0.033l0.064,0.032l0.064,0.031l0.063,0.031l0.064,0.031l0.064,0.029l0.064,0.029l0.063,0.029l0.064,0.027l0.064,0.028l0.064,0.026l0.064,0.026l0.063,0.025l0.064,0.025l0.064,0.024l0.063,0.023l0.064,0.022l0.063,0.022l0.063,0.022l0.064,0.02l0.063,0.02l0.063,0.019l0.063,0.019l0.062,0.018l0.063,0.017l0.062,0.016l0.062,0.016l0.062,0.015l0.062,0.014l0.062,0.014l0.061,0.013l0.061,0.012l0.062,0.012l0.03,0.005l0.03,0.006l0.03,0.005l0.03,0.005l0.03,0.005l0.03,0.004l0.03,0.005l0.03,0.004l0.03,0.004l0.03,0.004l0.029,0.004l0.03,0.003l0.03,0.004l0.029,0.003l0.029,0.003l0.03,0.003l0.029,0.002l0.029,0.003l0.029,0.002l0.029,0.002l0.029,0.002l0.029,0.002l0.028,0.001l0.029,0.002l0.028,0.001l0.029,0.001l0.028,0.001l0.028,0l0.028,0.001l0.028,0l0.028,0l0.028,0l0.028,0l0.028,-0.001l0.027,0l0.027,-0.001l0.028,-0.001l0.027,-0.001l0.027,-0.002l0.027,-0.001l0.027,-0.002l0.027,-0.002l0.026,-0.002l0.027,-0.002l0.026,-0.003l0.027,-0.003l0.026,-0.002l0.026,-0.003l0.026,-0.004l0.026,-0.003l0.026,-0.004l0.025,-0.004l0.026,-0.004l0.025,-0.004l0.026,-0.004l0.025,-0.005l0.025,-0.004l0.025,-0.005l0.025,-0.005l0.024,-0.006l0.025,-0.005l0.024,-0.006l0.025,-0.006l0.024,-0.006l0.024,-0.006l0.024,-0.007l0.024,-0.006l0.023,-0.007l0.024,-0.007l0.023,-0.007l0.024,-0.008l0.023,-0.007l0.023,-0.008l0.023,-0.008l0.022,-0.008l0.023,-0.009l0.023,-0.008l0.022,-0.009l0.022,-0.009l0.022,-0.009l0.022,-0.01l0.022,-0.009l0.022,-0.01l0.021,-0.01l0.022,-0.01l0.021,-0.011l0.021,-0.01l0.021,-0.011l0.021,-0.011l0.021,-0.011l0.021,-0.012l0.02,-0.011l0.02,-0.012l0.021,-0.012l0.02,-0.012l0.021,-0.014l0.439,0.047l-0.05,0.438l-0.021,0.02l-0.022,0.021l-0.022,0.02l-0.022,0.021l-0.023,0.02l-0.023,0.02l-0.023,0.019l-0.023,0.02l-0.024,0.019l-0.024,0.019l-0.024,0.019l-0.025,0.018l-0.024,0.019l-0.025,0.018l-0.025,0.018l-0.025,0.018l-0.026,0.017l-0.025,0.017l-0.026,0.017l-0.026,0.017l-0.027,0.017l-0.026,0.016l-0.027,0.016l-0.027,0.016l-0.027,0.016l-0.027,0.016l-0.028,0.015l-0.027,0.015l-0.028,0.015l-0.028,0.015l-0.029,0.014l-0.028,0.014l-0.029,0.014l-0.029,0.014l-0.029,0.014l-0.029,0.013l-0.029,0.013l-0.03,0.013l-0.03,0.013l-0.029,0.012l-0.03,0.012l-0.031,0.013l-0.03,0.011l-0.031,0.012l-0.03,0.011l-0.031,0.012l-0.031,0.011l-0.032,0.01l-0.031,0.011l-0.032,0.01l-0.031,0.01l-0.032,0.01l-0.032,0.01l-0.032,0.01l-0.033,0.009l-0.032,0.009l-0.033,0.009l-0.032,0.009l-0.033,0.008l-0.033,0.008l-0.034,0.008l-0.033,0.008l-0.033,0.008l-0.034,0.007l-0.034,0.007l-0.033,0.008l-0.034,0.006l-0.035,0.007l-0.034,0.006l-0.034,0.007l-0.035,0.006l-0.034,0.005l-0.035,0.006l-0.035,0.005l-0.035,0.005l-0.035,0.005l-0.035,0.005l-0.036,0.005l-0.035,0.004l-0.036,0.004l-0.035,0.004l-0.036,0.004l-0.036,0.004l-0.036,0.003l-0.036,0.003l-0.036,0.003l-0.037,0.003l-0.036,0.003l-0.037,0.002l-0.036,0.002l-0.037,0.002l-0.037,0.002l-0.037,0.002l-0.037,0.001l-0.037,0.001l-0.038,0.001l-0.074,0.002l-0.075,0l-0.076,0l-0.076,-0.001l-0.076,-0.001l-0.076,-0.003l-0.077,-0.003l-0.077,-0.004l-0.078,-0.004l-0.077,-0.006l-0.078,-0.006l-0.079,-0.007l-0.078,-0.008l-0.079,-0.008l-0.079,-0.01l-0.08,-0.01l-0.079,-0.011l-0.08,-0.011l-0.08,-0.012l-0.08,-0.013l-0.08,-0.014l-0.081,-0.015l-0.081,-0.015l-0.081,-0.016l-0.081,-0.017l-0.081,-0.017l-0.081,-0.018l-0.082,-0.019l-0.081,-0.02l-0.082,-0.021l-0.082,-0.021l-0.082,-0.022l-0.082,-0.022l-0.082,-0.024l-0.082,-0.024l-0.082,-0.025l-0.083,-0.025l-0.082,-0.027l-0.082,-0.027l-0.083,-0.028l-0.082,-0.028l-0.082,-0.03l-0.083,-0.03l-0.082,-0.03l-0.082,-0.032l-0.083,-0.032l-0.082,-0.033l-0.082,-0.034l-0.082,-0.034l-0.083,-0.036l-0.082,-0.036l-0.082,-0.036l-0.081,-0.038l-0.082,-0.038l-0.082,-0.039l-0.081,-0.039l-0.082,-0.041l-0.081,-0.041l-0.081,-0.042l-0.081,-0.042l-0.081,-0.044l-0.08,-0.044l-0.081,-0.045l-0.08,-0.045l-0.08,-0.047l-0.08,-0.047l-0.079,-0.048l-0.08,-0.048l-0.079,-0.05l-0.079,-0.05l-0.078,-0.051l-0.079,-0.051l-0.078,-0.053l-0.077,-0.053l-0.078,-0.054l-0.077,-0.055l-0.076,-0.054l-0.039,-0.029l-0.038,-0.028l-0.038,-0.029l-0.038,-0.028l-0.038,-0.029l-0.036,-0.027l-0.001,-0.002l-0.289,-0.4l-0.11,-0.467l0.073,-0.474l0.255,-0.422l0.003,-0.003l0.4,-0.288l0.467,-0.11l0.474,0.072Z"/></g></svg>