<?xml version="1.0" encoding="UTF-8" standalone="no"?>
<!DOCTYPE svg PUBLIC "-//W3C//DTD SVG 1.1//EN" "http://www.w3.org/Graphics/SVG/1.1/DTD/svg11.dtd">
<svg width="100%" height="100%" viewBox="0 0 223 41" version="1.1" xmlns="http://www.w3.org/2000/svg" xmlns:xlink="http://www.w3.org/1999/xlink" xml:space="preserve" xmlns:serif="http://www.serif.com/" style="fill-rule:evenodd;clip-rule:evenodd;stroke-linecap:round;stroke-linejoin:round;stroke-miterlimit:11;">
    <g transform="matrix(1,0,0,1,-468.6,-1163.3)">
        <g transform="matrix(1,0,0,1,0,1145.7)">
            <g transform="matrix(1,0,0,1,299.846,-50.9402)">
                <text x="197.711px" y="98.415px" style="font-family:'OpenSans-ExtraBold', 'Open Sans', sans-serif;font-weight:800;font-size:30px;fill:white;">Chess Match</text>
            </g>
        </g>
        <g transform="matrix(1,0,0,1,0,1145.7)">
            <g transform="matrix(0.101668,0,0,0.101668,181.01,-60.4067)">
                <path d="M2913.34,777.115L2949.58,777.115L2949.58,817.103L2979.1,817.103L2979.1,777.115L3015.34,777.115L3015.34,817.103L3044.86,817.103L3044.86,777.115L3081.1,777.115L3081.1,857.092L3064.34,873.854L3064.34,873.854C3062.27,873.854 3060.29,874.675 3058.83,876.136C3057.37,877.597 3056.55,879.578 3056.55,881.644C3056.55,913.995 3056.55,1036.07 3056.55,1036.07L3089.4,1099.78L3089.4,1119.62L3155.9,1119.62L3155.9,1155.01L2838.54,1155.01L2838.54,1119.62L2904.9,1119.62L2904.9,1099.78L2937.93,1036.07L2937.93,881.673C2937.93,877.355 2934.43,873.854 2930.11,873.854C2930.1,873.854 2930.1,873.854 2930.1,873.854L2913.34,857.092L2913.34,777.115Z" style="fill:none;"/>
                <clipPath id="_clip1">
                    <path d="M2913.34,777.115L2949.58,777.115L2949.58,817.103L2979.1,817.103L2979.1,777.115L3015.34,777.115L3015.34,817.103L3044.86,817.103L3044.86,777.115L3081.1,777.115L3081.1,857.092L3064.34,873.854L3064.34,873.854C3062.27,873.854 3060.29,874.675 3058.83,876.136C3057.37,877.597 3056.55,879.578 3056.55,881.644C3056.55,913.995 3056.55,1036.07 3056.55,1036.07L3089.4,1099.78L3089.4,1119.62L3155.9,1119.62L3155.9,1155.01L2838.54,1155.01L2838.54,1119.62L2904.9,1119.62L2904.9,1099.78L2937.93,1036.07L2937.93,881.673C2937.93,877.355 2934.43,873.854 2930.11,873.854C2930.1,873.854 2930.1,873.854 2930.1,873.854L2913.34,857.092L2913.34,777.115Z"/>
                </clipPath>
                <g clip-path="url(#_clip1)">
                    <g transform="matrix(9.8359,0,0,9.8359,-1780.4,594.155)">
                        <path d="M501.865,52.891L501.865,57.021L489.881,57.021L489.881,52.891L501.865,52.891ZM488.587,51.388L495.116,51.388L495.116,52.891L488.587,52.891L488.587,51.388ZM495.104,44.918L495.104,51.388L488.587,51.388L486.952,44.918L495.104,44.918ZM488.557,26.945L488.557,13.32L496.164,13.32L496.164,26.908L501.216,26.908L501.216,28.719L496.164,28.719L496.164,31.76L494.559,31.76L494.559,44.918L486.952,44.918L486.952,28.719L488.557,28.719L487.074,28.719L488.557,26.945Z" style="fill-opacity:0.35;"/>
                    </g>
                </g>
                <path d="M2913.34,777.115L2949.58,777.115L2949.58,817.103L2979.1,817.103L2979.1,777.115L3015.34,777.115L3015.34,817.103L3044.86,817.103L3044.86,777.115L3081.1,777.115L3081.1,857.092L3064.34,873.854L3064.34,873.854C3062.27,873.854 3060.29,874.675 3058.83,876.136C3057.37,877.597 3056.55,879.578 3056.55,881.644C3056.55,913.995 3056.55,1036.07 3056.55,1036.07L3089.4,1099.78L3089.4,1119.62L3155.9,1119.62L3155.9,1155.01L2838.54,1155.01L2838.54,1119.62L2904.9,1119.62L2904.9,1099.78L2937.93,1036.07L2937.93,881.673C2937.93,877.355 2934.43,873.854 2930.11,873.854C2930.1,873.854 2930.1,873.854 2930.1,873.854L2913.34,857.092L2913.34,777.115Z" style="fill:none;stroke:white;stroke-width:19.67px;"/>
                <g transform="matrix(1,0,0,1,-1.16227,22.1889)">
                    <path d="M3074.16,852.461L3063.84,861.79L3014.57,851.904L3004.87,848.973L3014.82,847.03L3064.83,842.143L3074.16,852.461Z" style="fill:white;"/>
                </g>
                <g transform="matrix(0.712864,0,0,1,895.204,4.11072)">
                    <path d="M3078.13,852.229L3063.97,861.799L2887.01,851.027L2873.31,848.324L2887.19,846.148L3064.71,842.134L3078.13,852.229Z" style="fill:white;"/>
                </g>
                <g transform="matrix(0.841753,0,0,1,475.082,0.0202826)">
                    <path d="M3115.54,1119.62L3103.86,1129.45L2976.7,1122.06L2965.02,1119.62L2976.7,1117.18L3103.86,1109.78L3115.54,1119.62Z" style="fill:white;"/>
                </g>
            </g>
        </g>
    </g>
</svg>
