<?xml version="1.0" encoding="UTF-8" standalone="no"?>
<!DOCTYPE svg PUBLIC "-//W3C//DTD SVG 1.1//EN" "http://www.w3.org/Graphics/SVG/1.1/DTD/svg11.dtd">
<svg width="100%" height="100%" viewBox="0 0 223 41" version="1.1" xmlns="http://www.w3.org/2000/svg" xmlns:xlink="http://www.w3.org/1999/xlink" xml:space="preserve" xmlns:serif="http://www.serif.com/" style="fill-rule:evenodd;clip-rule:evenodd;stroke-linecap:round;stroke-linejoin:round;stroke-miterlimit:11;">
    <g transform="matrix(1,0,0,1,-468.541,-1163.24)">
        <g transform="matrix(1,0,0,1,0,1145.7)">
            <g transform="matrix(1,0,0,1,299.846,-50.9402)">
                <text x="197.711px" y="98.415px" style="font-family:'OpenSans-ExtraBold', 'Open Sans', sans-serif;font-weight:800;font-size:30px;fill:white;">Chess Match</text>
            </g>
        </g>
        <g transform="matrix(1,0,0,1,0,1145.7)">
            <g transform="matrix(0.101668,0,0,0.101668,181.01,-60.4067)">
                <path d="M2913.34,777.115L2949.58,777.115L2949.58,817.103L2979.1,817.103L2979.1,777.115L3015.34,777.115L3015.34,817.103L3044.86,817.103L3044.86,777.115L3081.1,777.115L3081.1,857.092L3064.34,873.854L3064.34,873.854C3062.27,873.854 3060.29,874.675 3058.83,876.136C3057.37,877.597 3056.55,879.578 3056.55,881.644C3056.55,913.995 3056.55,1036.07 3056.55,1036.07L3089.4,1099.78L3089.4,1119.62L3155.9,1119.62L3155.9,1155.01L2838.54,1155.01L2838.54,1119.62L2904.9,1119.62L2904.9,1099.78L2937.93,1036.07L2937.93,881.673C2937.93,877.355 2934.43,873.854 2930.11,873.854C2930.1,873.854 2930.1,873.854 2930.1,873.854L2913.34,857.092L2913.34,777.115Z" style="fill:none;"/>
                <clipPath id="_clip1">
                    <path d="M2913.34,777.115L2949.58,777.115L2949.58,817.103L2979.1,817.103L2979.1,777.115L3015.34,777.115L3015.34,817.103L3044.86,817.103L3044.86,777.115L3081.1,777.115L3081.1,857.092L3064.34,873.854L3064.34,873.854C3062.27,873.854 3060.29,874.675 3058.83,876.136C3057.37,877.597 3056.55,879.578 3056.55,881.644C3056.55,913.995 3056.55,1036.07 3056.55,1036.07L3089.4,1099.78L3089.4,1119.62L3155.9,1119.62L3155.9,1155.01L2838.54,1155.01L2838.54,1119.62L2904.9,1119.62L2904.9,1099.78L2937.93,1036.07L2937.93,881.673C2937.93,877.355 2934.43,873.854 2930.11,873.854C2930.1,873.854 2930.1,873.854 2930.1,873.854L2913.34,857.092L2913.34,777.115Z"/>
                </clipPath>
                <g clip-path="url(#_clip1)">
                    <g transform="matrix(9.8359,0,0,9.8359,-1780.4,594.155)">
                        <path d="M501.865,52.891L501.865,57.021L489.881,57.021L489.881,52.891L501.865,52.891ZM488.587,51.388L495.116,51.388L495.116,52.891L488.587,52.891L488.587,51.388ZM495.104,44.918L495.104,51.388L488.587,51.388L486.952,44.918L495.104,44.918ZM488.557,26.945L488.557,13.32L496.164,13.32L496.164,26.908L501.216,26.908L501.216,28.719L496.164,28.719L496.164,31.76L494.559,31.76L494.559,44.918L486.952,44.918L486.952,28.719L488.557,28.719L487.074,28.719L488.557,26.945Z" style="fill-opacity:0.35;"/>
                    </g>
                </g>
                <path d="M2913.34,777.115L2949.58,777.115L2949.58,817.103L2979.1,817.103L2979.1,777.115L3015.34,777.115L3015.34,817.103L3044.86,817.103L3044.86,777.115L3081.1,777.115L3081.1,857.092L3064.34,873.854L3064.34,873.854C3062.27,873.854 3060.29,874.675 3058.83,876.136C3057.37,877.597 3056.55,879.578 3056.55,881.644C3056.55,913.995 3056.55,1036.07 3056.55,1036.07L3089.4,1099.78L3089.4,1119.62L3155.9,1119.62L3155.9,1155.01L2838.54,1155.01L2838.54,1119.62L2904.9,1119.62L2904.9,1099.78L2937.93,1036.07L2937.93,881.673C2937.93,877.355 2934.43,873.854 2930.11,873.854C2930.1,873.854 2930.1,873.854 2930.1,873.854L2913.34,857.092L2913.34,777.115Z" style="fill:none;stroke:white;stroke-width:20.83px;"/>
                <g transform="matrix(1,0,0,1,-1.20975,27.1671)">
                    <path d="M3069.54,852.228L3064.08,857.168L3014.63,850.758L3009.49,849.205L3014.76,848.176L3064.6,846.764L3069.54,852.228Z" style="fill:white;"/>
                </g>
                <g transform="matrix(0.712864,0,0,1,898.366,6.9728)">
                    <path d="M3071.64,852.105L3064.14,857.173L2887.05,849.879L2879.8,848.448L2887.15,847.296L3064.53,846.76L3071.64,852.105Z" style="fill:white;"/>
                </g>
                <g transform="matrix(0.841753,0,0,1,476.738,-5.23207)">
                    <path d="M3110.04,1119.62L3103.86,1124.83L2976.7,1120.91L2970.51,1119.62L2976.7,1118.33L3103.86,1114.41L3110.04,1119.62Z" style="fill:white;"/>
                </g>
            </g>
        </g>
    </g>
</svg>
