<?xml version="1.0" encoding="UTF-8" standalone="no"?><!DOCTYPE svg PUBLIC "-//W3C//DTD SVG 1.1//EN" "http://www.w3.org/Graphics/SVG/1.1/DTD/svg11.dtd"><svg width="100%" height="100%" viewBox="0 0 137 137" version="1.1" xmlns="http://www.w3.org/2000/svg" xmlns:xlink="http://www.w3.org/1999/xlink" xml:space="preserve" xmlns:serif="http://www.serif.com/" style="fill-rule:evenodd;clip-rule:evenodd;stroke-linejoin:round;stroke-miterlimit:1.5;"><rect id="white-pawn" x="0.102" y="0" width="135.995" height="135.995" style="fill:none;"/><path d="M63.594,64.488c-8.114,-2.017 -14.135,-9.357 -14.135,-18.092c0,-10.288 8.353,-18.64 18.641,-18.64c10.288,0 18.641,8.352 18.641,18.64c0,8.697 -5.968,16.01 -14.028,18.065c3.119,-0.008 5.937,-0.016 7.73,-0.022l0.143,0c5.453,0.099 10.672,9.993 10.049,14.382c-0.442,3.107 -4.063,4.915 -7.45,5.731c0.329,15.189 18.749,15.189 18.749,15.189c2.345,0 4.249,1.904 4.249,4.249c0,2.346 -1.903,4.249 -4.249,4.25l-67.668,0c-2.345,0 -4.249,-1.904 -4.249,-4.25c0,-2.345 1.904,-4.249 4.249,-4.249c0,0 17.723,0 17.875,-15.404c-3.493,-1.042 -6.229,-3.076 -6.614,-5.599c-0.281,-4.268 4.329,-13.614 9.32,-14.208l1.052,-0.004c1.426,-0.014 4.322,-0.026 7.695,-0.038Z" style="fill:none;stroke:#000;stroke-width:5px;"/><path d="M63.594,64.488c-8.114,-2.017 -14.135,-9.357 -14.135,-18.092c0,-10.288 8.353,-18.64 18.641,-18.64c10.288,0 18.641,8.352 18.641,18.64c0,8.697 -5.968,16.01 -14.028,18.065c3.119,-0.008 5.937,-0.016 7.73,-0.022l0.143,0c5.453,0.099 10.672,9.993 10.049,14.382c-0.442,3.107 -4.063,4.915 -7.45,5.731c0.329,15.189 18.749,15.189 18.749,15.189c2.345,0 4.249,1.904 4.249,4.249c0,2.346 -1.903,4.249 -4.249,4.25l-67.668,0c-2.345,0 -4.249,-1.904 -4.249,-4.25c0,-2.345 1.904,-4.249 4.249,-4.249c0,0 17.723,0 17.875,-15.404c-3.493,-1.042 -6.229,-3.076 -6.614,-5.599c-0.281,-4.268 4.329,-13.614 9.32,-14.208l1.052,-0.004c1.426,-0.014 4.322,-0.026 7.695,-0.038Z" style="fill:#fff;"/><clipPath id="_clip1"><path d="M63.594,64.488c-8.114,-2.017 -14.135,-9.357 -14.135,-18.092c0,-10.288 8.353,-18.64 18.641,-18.64c10.288,0 18.641,8.352 18.641,18.64c0,8.697 -5.968,16.01 -14.028,18.065c3.119,-0.008 5.937,-0.016 7.73,-0.022l0.143,0c5.453,0.099 10.672,9.993 10.049,14.382c-0.442,3.107 -4.063,4.915 -7.45,5.731c0.329,15.189 18.749,15.189 18.749,15.189c2.345,0 4.249,1.904 4.249,4.249c0,2.346 -1.903,4.249 -4.249,4.25l-67.668,0c-2.345,0 -4.249,-1.904 -4.249,-4.25c0,-2.345 1.904,-4.249 4.249,-4.249c0,0 17.723,0 17.875,-15.404c-3.493,-1.042 -6.229,-3.076 -6.614,-5.599c-0.281,-4.268 4.329,-13.614 9.32,-14.208l1.052,-0.004c1.426,-0.014 4.322,-0.026 7.695,-0.038Z"/></clipPath><g clip-path="url(#_clip1)"><path d="M106.183,27.756l-38.083,0c13.311,7.526 14.272,27.906 2.071,36.705c7.255,2.133 7.751,11.244 7.769,14.079c0.023,3.567 -6.873,5.751 -9.84,6.053c1.673,5.199 8.484,14.942 14.64,15.039c8.24,0.129 9.206,8.911 1.894,8.608c-3.209,-0.133 21.549,0 21.549,0l0,-80.484Z" style="fill:#e6e6e6;"/></g></svg>