<?xml version="1.0" encoding="UTF-8" standalone="no"?><!DOCTYPE svg PUBLIC "-//W3C//DTD SVG 1.1//EN" "http://www.w3.org/Graphics/SVG/1.1/DTD/svg11.dtd"><svg width="100%" height="100%" viewBox="0 0 137 137" version="1.1" xmlns="http://www.w3.org/2000/svg" xmlns:xlink="http://www.w3.org/1999/xlink" xml:space="preserve" xmlns:serif="http://www.serif.com/" style="fill-rule:evenodd;clip-rule:evenodd;stroke-linejoin:round;stroke-miterlimit:1.5;"><rect id="white-queen" x="0.067" y="0" width="135.995" height="135.995" style="fill:none;"/><g><ellipse cx="68.013" cy="116.24" rx="21.13" ry="5.466" style="fill:none;stroke:#000;stroke-width:5px;"/><ellipse cx="68.013" cy="116.24" rx="21.13" ry="5.466" style="fill:#fff;"/><clipPath id="_clip1"><ellipse cx="68.013" cy="116.24" rx="21.13" ry="5.466"/></clipPath><g clip-path="url(#_clip1)"><path d="M66.235,104.388l-20.289,0l0,17.319l20.289,0c-2.428,-3.838 -3.159,-9.027 0,-17.319Z" style="fill:#e6e6e6;"/></g><path d="M67.728,19.227c-1.21,-0.164 -2.144,-1.203 -2.144,-2.458c0,-1.369 1.112,-2.48 2.481,-2.48c1.369,0 2.481,1.111 2.481,2.48c0,1.291 -0.988,2.352 -2.248,2.47l6.727,58.151l19.321,-48.804c-0.937,-0.355 -1.603,-1.261 -1.603,-2.321c0,-1.369 1.111,-2.481 2.48,-2.481c1.369,0 2.481,1.112 2.481,2.481c0,1.369 -1.112,2.481 -2.481,2.481c-0.1,0 -0.2,-0.006 -0.297,-0.018l-7.45,50.443l28.123,-36.581c-0.528,-0.455 -0.861,-1.128 -0.861,-1.878c0,-1.369 1.111,-2.481 2.48,-2.481c1.369,0 2.481,1.112 2.481,2.481c0,1.369 -1.112,2.48 -2.481,2.48c-0.366,0 -0.714,-0.079 -1.027,-0.222l-25.326,61.304l-6.54,-3.775l-0.557,3.775l-16.143,-4.325l-16.143,4.325l-0.489,-3.307l-5.728,3.307l-25.326,-61.304c-0.313,0.143 -0.661,0.222 -1.027,0.222c-1.37,0 -2.481,-1.111 -2.481,-2.48c0,-1.369 1.111,-2.481 2.481,-2.481c1.369,0 2.48,1.112 2.48,2.481c0,0.75 -0.334,1.423 -0.861,1.878l27.033,35.163l-7.242,-49.039c-0.129,0.021 -0.261,0.032 -0.396,0.032c-1.369,0 -2.48,-1.112 -2.48,-2.481c0,-1.369 1.111,-2.481 2.48,-2.481c1.369,0 2.481,1.112 2.481,2.481c0,1.028 -0.626,1.91 -1.517,2.286l19.935,50.355l6.903,-59.679Zm0.245,75.975l-0.697,0l0.349,0.88l0.348,-0.88Z" style="fill:none;stroke:#000;stroke-width:5px;"/><path d="M67.728,19.227c-1.21,-0.164 -2.144,-1.203 -2.144,-2.458c0,-1.369 1.112,-2.48 2.481,-2.48c1.369,0 2.481,1.111 2.481,2.48c0,1.291 -0.988,2.352 -2.248,2.47l6.727,58.151l19.321,-48.804c-0.937,-0.355 -1.603,-1.261 -1.603,-2.321c0,-1.369 1.111,-2.481 2.48,-2.481c1.369,0 2.481,1.112 2.481,2.481c0,1.369 -1.112,2.481 -2.481,2.481c-0.1,0 -0.2,-0.006 -0.297,-0.018l-7.45,50.443l28.123,-36.581c-0.528,-0.455 -0.861,-1.128 -0.861,-1.878c0,-1.369 1.111,-2.481 2.48,-2.481c1.369,0 2.481,1.112 2.481,2.481c0,1.369 -1.112,2.48 -2.481,2.48c-0.366,0 -0.714,-0.079 -1.027,-0.222l-25.326,61.304l-6.54,-3.775l-0.557,3.775l-16.143,-4.325l-16.143,4.325l-0.489,-3.307l-5.728,3.307l-25.326,-61.304c-0.313,0.143 -0.661,0.222 -1.027,0.222c-1.37,0 -2.481,-1.111 -2.481,-2.48c0,-1.369 1.111,-2.481 2.481,-2.481c1.369,0 2.48,1.112 2.48,2.481c0,0.75 -0.334,1.423 -0.861,1.878l27.033,35.163l-7.242,-49.039c-0.129,0.021 -0.261,0.032 -0.396,0.032c-1.369,0 -2.48,-1.112 -2.48,-2.481c0,-1.369 1.111,-2.481 2.48,-2.481c1.369,0 2.481,1.112 2.481,2.481c0,1.028 -0.626,1.91 -1.517,2.286l19.935,50.355l6.903,-59.679Zm0.245,75.975l-0.697,0l0.349,0.88l0.348,-0.88Z" style="fill:#fff;"/><clipPath id="_clip2"><path d="M67.728,19.227c-1.21,-0.164 -2.144,-1.203 -2.144,-2.458c0,-1.369 1.112,-2.48 2.481,-2.48c1.369,0 2.481,1.111 2.481,2.48c0,1.291 -0.988,2.352 -2.248,2.47l6.727,58.151l19.321,-48.804c-0.937,-0.355 -1.603,-1.261 -1.603,-2.321c0,-1.369 1.111,-2.481 2.48,-2.481c1.369,0 2.481,1.112 2.481,2.481c0,1.369 -1.112,2.481 -2.481,2.481c-0.1,0 -0.2,-0.006 -0.297,-0.018l-7.45,50.443l28.123,-36.581c-0.528,-0.455 -0.861,-1.128 -0.861,-1.878c0,-1.369 1.111,-2.481 2.48,-2.481c1.369,0 2.481,1.112 2.481,2.481c0,1.369 -1.112,2.48 -2.481,2.48c-0.366,0 -0.714,-0.079 -1.027,-0.222l-25.326,61.304l-6.54,-3.775l-0.557,3.775l-16.143,-4.325l-16.143,4.325l-0.489,-3.307l-5.728,3.307l-25.326,-61.304c-0.313,0.143 -0.661,0.222 -1.027,0.222c-1.37,0 -2.481,-1.111 -2.481,-2.48c0,-1.369 1.111,-2.481 2.481,-2.481c1.369,0 2.48,1.112 2.48,2.481c0,0.75 -0.334,1.423 -0.861,1.878l27.033,35.163l-7.242,-49.039c-0.129,0.021 -0.261,0.032 -0.396,0.032c-1.369,0 -2.48,-1.112 -2.48,-2.481c0,-1.369 1.111,-2.481 2.48,-2.481c1.369,0 2.481,1.112 2.481,2.481c0,1.028 -0.626,1.91 -1.517,2.286l19.935,50.355l6.903,-59.679Zm0.245,75.975l-0.697,0l0.349,0.88l0.348,-0.88Z"/></clipPath><g clip-path="url(#_clip2)"><path d="M87.462,79.271c0.637,0.2 1.264,0.418 1.898,0.655c4.413,1.596 9.316,-0.411 11.343,-4.642c5.615,-11.703 15.488,-32.314 15.488,-32.314l-24.147,61.304l-23.979,-11.966c3.162,-21.374 1.443,-47.468 0.233,-73.069l6.727,58.151c0.641,0.033 1.254,0.07 1.841,0.11c4.149,0.293 7.886,-2.502 8.778,-6.565c3.045,-13.856 9.267,-42.204 9.267,-42.204l-7.449,50.54Z" style="fill:#e6e6e6;"/><path d="M59.811,22.503l-18.872,6.191c0,0 10.482,35.096 13.83,45.3c0.217,0.661 1.973,3.625 6.056,4.912c0.217,0.069 -1.014,-56.403 -1.014,-56.403Z" style="fill:#e6e6e6;"/><path d="M28.7,42.59l-8.169,0c0,0 14.212,23.431 18.916,31.187c0.954,1.573 2.502,2.695 4.294,3.113c1.835,0.428 3.896,0.909 3.896,0.909l-18.937,-35.209Z" style="fill:#e6e6e6;"/></g><path d="M66.191,93.223c1.149,-0.565 2.494,-0.565 3.643,0c3.108,1.541 9.439,4.599 12.946,5.71c2.062,0.654 4.964,0.463 6.66,2.158c2.328,2.328 1.155,6.562 0.936,9.227c-0.112,1.362 0.237,4.749 -0.936,5.922c-0.188,-2.542 -9.808,-3.922 -19.752,-4.024l0,0.014c-0.557,-0.01 -1.116,-0.017 -1.675,-0.019c-0.56,0.002 -1.119,0.009 -1.676,0.019l0,-0.014c-9.944,0.102 -19.564,1.482 -19.751,4.024c-1.173,-1.173 -0.824,-4.56 -0.936,-5.922c-0.22,-2.665 -1.393,-6.899 0.936,-9.227c1.695,-1.695 4.597,-1.504 6.66,-2.158c3.506,-1.111 9.837,-4.169 12.945,-5.71Z" style="fill:none;stroke:#000;stroke-width:5px;"/><path d="M66.191,93.223c1.149,-0.565 2.494,-0.565 3.643,0c3.108,1.541 9.439,4.599 12.946,5.71c2.062,0.654 4.964,0.463 6.66,2.158c2.328,2.328 1.155,6.562 0.936,9.227c-0.112,1.362 0.237,4.749 -0.936,5.922c-0.188,-2.542 -9.808,-3.922 -19.752,-4.024l0,0.014c-0.557,-0.01 -1.116,-0.017 -1.675,-0.019c-0.56,0.002 -1.119,0.009 -1.676,0.019l0,-0.014c-9.944,0.102 -19.564,1.482 -19.751,4.024c-1.173,-1.173 -0.824,-4.56 -0.936,-5.922c-0.22,-2.665 -1.393,-6.899 0.936,-9.227c1.695,-1.695 4.597,-1.504 6.66,-2.158c3.506,-1.111 9.837,-4.169 12.945,-5.71Z" style="fill:#fff;"/><clipPath id="_clip3"><path d="M66.191,93.223c1.149,-0.565 2.494,-0.565 3.643,0c3.108,1.541 9.439,4.599 12.946,5.71c2.062,0.654 4.964,0.463 6.66,2.158c2.328,2.328 1.155,6.562 0.936,9.227c-0.112,1.362 0.237,4.749 -0.936,5.922c-0.188,-2.542 -9.808,-3.922 -19.752,-4.024l0,0.014c-0.557,-0.01 -1.116,-0.017 -1.675,-0.019c-0.56,0.002 -1.119,0.009 -1.676,0.019l0,-0.014c-9.944,0.102 -19.564,1.482 -19.751,4.024c-1.173,-1.173 -0.824,-4.56 -0.936,-5.922c-0.22,-2.665 -1.393,-6.899 0.936,-9.227c1.695,-1.695 4.597,-1.504 6.66,-2.158c3.506,-1.111 9.837,-4.169 12.945,-5.71Z"/></clipPath><g clip-path="url(#_clip3)"><path d="M90.704,92.465l-22.066,0.085c3.373,2.463 7.873,5.523 9.273,7.174c3.248,3.832 0.151,17.781 -4.873,17.781l17.666,0l0,-25.04Z" style="fill:#e6e6e6;"/></g></g></svg>