<?xml version="1.0" encoding="UTF-8" standalone="no"?><!DOCTYPE svg PUBLIC "-//W3C//DTD SVG 1.1//EN" "http://www.w3.org/Graphics/SVG/1.1/DTD/svg11.dtd"><svg width="100%" height="100%" viewBox="0 0 137 137" version="1.1" xmlns="http://www.w3.org/2000/svg" xmlns:xlink="http://www.w3.org/1999/xlink" xml:space="preserve" xmlns:serif="http://www.serif.com/" style="fill-rule:evenodd;clip-rule:evenodd;stroke-linecap:round;stroke-linejoin:round;stroke-miterlimit:11;"><rect id="white-rook" x="0.032" y="0" width="135.995" height="135.995" style="fill:none;"/><g><path d="M47.898,22.651l8.698,0l0,9.597l7.085,0l0,-9.597l8.698,0l0,9.597l7.084,0l0,-9.597l8.698,0l0,19.194l-4.023,4.023l0,0c-0.496,0 -0.971,0.197 -1.322,0.548c-0.351,0.35 -0.548,0.826 -0.548,1.322c0,7.764 0,37.061 0,37.061l7.885,15.291l0,4.761l15.96,0l0,8.493l-76.166,0l0,-8.493l15.926,0l0,-4.761l7.926,-15.291l0,-37.061c0,-0.496 -0.197,-0.972 -0.547,-1.322c-0.351,-0.351 -0.826,-0.548 -1.322,-0.548c-0.006,0 -0.009,0 -0.009,0l-4.023,-4.023l0,-19.194Z" style="fill:none;stroke:#000;stroke-width:5px;"/><path d="M47.898,22.651l8.698,0l0,9.597l7.085,0l0,-9.597l8.698,0l0,9.597l7.084,0l0,-9.597l8.698,0l0,19.194l-4.023,4.023l0,0c-0.496,0 -0.971,0.197 -1.322,0.548c-0.351,0.35 -0.548,0.826 -0.548,1.322c0,7.764 0,37.061 0,37.061l7.885,15.291l0,4.761l15.96,0l0,8.493l-76.166,0l0,-8.493l15.926,0l0,-4.761l7.926,-15.291l0,-37.061c0,-0.496 -0.197,-0.972 -0.547,-1.322c-0.351,-0.351 -0.826,-0.548 -1.322,-0.548c-0.006,0 -0.009,0 -0.009,0l-4.023,-4.023l0,-19.194Z" style="fill:#fff;"/><clipPath id="_clip1"><path d="M47.898,22.651l8.698,0l0,9.597l7.085,0l0,-9.597l8.698,0l0,9.597l7.084,0l0,-9.597l8.698,0l0,19.194l-4.023,4.023l0,0c-0.496,0 -0.971,0.197 -1.322,0.548c-0.351,0.35 -0.548,0.826 -0.548,1.322c0,7.764 0,37.061 0,37.061l7.885,15.291l0,4.761l15.96,0l0,8.493l-76.166,0l0,-8.493l15.926,0l0,-4.761l7.926,-15.291l0,-37.061c0,-0.496 -0.197,-0.972 -0.547,-1.322c-0.351,-0.351 -0.826,-0.548 -1.322,-0.548c-0.006,0 -0.009,0 -0.009,0l-4.023,-4.023l0,-19.194Z"/></clipPath><g clip-path="url(#_clip1)"><rect x="70.908" y="46.535" width="17.957" height="38.238" style="fill:#e6e6e6;"/><rect x="74.697" y="10.185" width="17.958" height="43.528" style="fill:#e6e6e6;"/><rect x="74.769" y="100.048" width="15.412" height="3.548" style="fill:#e6e6e6;"/><rect x="77.822" y="103.596" width="28.291" height="9.749" style="fill:#e6e6e6;"/><path d="M104.581,42.261l-29.812,0l-3.573,4.274l33.385,0l0,-4.274Z" style="fill:#e6e6e6;"/><path d="M90.153,84.774l-19.245,0l3.861,15.274l15.384,0l0,-15.274Z" style="fill:#e6e6e6;"/></g><path d="M83.913,45.887l0.477,0.123l0.384,0.288l0.248,0.41l0.074,0.488l0,0.004l-0.123,0.478l-0.288,0.383l-0.41,0.248l-0.488,0.075l-0.002,0l-11.868,-1.539l-1.232,-0.372l1.264,-0.247l11.962,-0.339l0.002,0Z"/><path d="M88.61,41.039l0.48,0.112l0.391,0.279l0.257,0.404l0.086,0.486l0,0.004l-0.112,0.481l-0.279,0.39l-0.404,0.257l-0.486,0.086l-0.002,0l-30.298,-1.75l-0.002,0l-0.878,-0.131l-0.361,-0.21l0,-0.005l0.372,-0.191l0.883,-0.083l0.003,0l30.348,-0.129l0.002,0Z"/><path d="M90.642,102.444l0.398,0.269l0.268,0.397l0.099,0.483l0,0.005l-0.099,0.483l-0.268,0.398l-0.398,0.268l-0.483,0.099l-0.002,0l-25.688,-0.94l-0.002,0l-0.881,-0.11l-0.367,-0.198l0,-0.005l0.367,-0.197l0.881,-0.11l0.002,0l25.688,-0.94l0.002,0l0.483,0.098Z"/></g></svg>